<svg preserveAspectRatio="none" width="100%" height="100%" overflow="visible" style="display: block;" viewBox="0 0 20 20" fill="none" xmlns="http://www.w3.org/2000/svg">
<path id="Icon Color" d="M10 0C4.5 0 0 4.5 0 10C0 15.5 4.5 20 10 20C15.5 20 20 15.5 20 10C20 4.5 15.5 0 10 0ZM10 16.2C9.3 16.2 8.8 15.6 8.8 15C8.8 14.4 9.4 13.8 10 13.8C10.7 13.8 11.2 14.4 11.2 15C11.2 15.6 10.7 16.2 10 16.2ZM11.4 10.8L11 11V12H9V9.8L10.5 9C11.8 8.3 12 7.8 12 7.3C12 6.5 11.1 6 9.7 6C8.5 6 7.3 6.4 6 7.2V5C7.2 4.4 8.5 4 9.7 4C12.7 4 14 5.5 14 7.3C14 9.6 12 10.5 11.4 10.8Z" fill="var(--fill-0, black)" fill-opacity="0.75"/>
</svg>
