<svg preserveAspectRatio="none" width="100%" height="100%" overflow="visible" style="display: block;" viewBox="0 0 48 48" fill="none" xmlns="http://www.w3.org/2000/svg">
<g id="small 40">
<path id="Vector" d="M5 0C2.8 0 1 1.8 1 4V29C1 29.6 1.4 30.1 2 30.1C2.3 30.1 2.6 30 2.8 29.8L9.5 23H37C39.2 23 41 21.3 41 19.1V4C41 1.8 39.2 0 37 0L5 0Z" fill="var(--fill-0, #D1DDE9)"/>
<path id="Vector_2" d="M43.3 25H14.7C12.7 25 11 26.7 11 28.7V39.4C11 41.4 12.6 43.1 14.7 43.1H40.3L45.2 47.6C45.4 47.8 45.7 47.9 46 47.9C46.6 47.9 47 47.4 47 46.9V28.7C47 26.6 45.4 25 43.3 25V25Z" fill="var(--fill-0, #F3BA63)"/>
<path id="Vector_3" d="M33.5 7.5H7C6.6 7.5 6.3 7.2 6.3 6.8C6.3 6.4 6.6 6 7 6H33.5C33.9 6 34.2 6.3 34.2 6.7C34.2 7.1 33.9 7.5 33.5 7.5Z" fill="var(--fill-0, #56697A)"/>
<path id="Vector_4" d="M41 32.5H17C16.6 32.5 16.2 32.2 16.2 31.7C16.2 31.3 16.5 30.9 17 30.9H41C41.4 30.9 41.8 31.2 41.8 31.7C41.7 32.2 41.4 32.5 41 32.5Z" fill="var(--fill-0, white)"/>
<path id="Vector_5" d="M32 37H17C16.6 37 16.2 36.7 16.2 36.2C16.2 35.8 16.5 35.4 17 35.4H32C32.4 35.4 32.8 35.7 32.8 36.2C32.7 36.7 32.4 37 32 37V37Z" fill="var(--fill-0, white)"/>
<g id="Group">
<path id="Vector_6" d="M34 12H7C6.6 12 6.2 11.7 6.2 11.2C6.2 10.7 6.5 10.4 7 10.4H34C34.4 10.4 34.8 10.7 34.8 11.2C34.8 11.7 34.4 12 34 12Z" fill="var(--fill-0, #56697A)"/>
<path id="Vector_7" d="M22 16.5H7C6.6 16.5 6.2 16.2 6.2 15.7C6.2 15.2 6.6 15 7 15H22C22.4 15 22.8 15.3 22.8 15.8C22.8 16.3 22.4 16.5 22 16.5Z" fill="var(--fill-0, #56697A)"/>
</g>
</g>
</svg>
