<svg preserveAspectRatio="none" width="100%" height="100%" overflow="visible" style="display: block;" viewBox="0 0 12 12" fill="none" xmlns="http://www.w3.org/2000/svg">
<path id="Icon" d="M10 0H2C0.9 0 0 0.9 0 2V10C0 11.1 0.9 12 2 12H10C11.1 12 12 11.1 12 10V2C12 0.9 11.1 0 10 0ZM7 8V10H5.5C4.7 10 4 9.3 4 8.5C4 8.3 4 8.1 4.1 8L5.2 5H7.3L6.2 8H7ZM7 4.2C6.3 4.2 5.8 3.7 5.8 3C5.8 2.3 6.4 1.7 7 1.7C7.6 1.7 8.2 2.3 8.2 3C8.2 3.7 7.7 4.2 7 4.2Z" fill="var(--fill-0, black)" fill-opacity="0.6"/>
</svg>
