<svg preserveAspectRatio="none" width="100%" height="100%" overflow="visible" style="display: block;" viewBox="0 0 14 14" fill="none" xmlns="http://www.w3.org/2000/svg">
<path id="Icon" d="M9.9 8.5C9.6 9 9 9.2 8.5 8.9L6.5 7.9C6.2 7.7 6 7.4 6 7V4C6 3.4 6.4 3 7 3C7.6 3 8 3.4 8 4V6.4L9.5 7.1C10 7.4 10.1 8 9.9 8.5ZM14 7C14 10.9 10.9 14 7 14C3.1 14 0 10.9 0 7C0 3.1 3.1 0 7 0C10.9 0 14 3.1 14 7ZM12 7C12 4.2 9.8 2 7 2C4.2 2 2 4.2 2 7C2 9.8 4.2 12 7 12C9.8 12 12 9.8 12 7Z" fill="var(--fill-0, black)" fill-opacity="0.75"/>
</svg>
