<svg preserveAspectRatio="none" width="100%" height="100%" overflow="visible" style="display: block;" viewBox="0 0 34 34" fill="none" xmlns="http://www.w3.org/2000/svg">
<path id="In 34" d="M34 2.5V31.5C34 32.163 33.7366 32.7989 33.2678 33.2678C32.7989 33.7366 32.163 34 31.5 34H2.5C1.83696 34 1.20107 33.7366 0.732231 33.2678C0.26339 32.7989 0 32.163 0 31.5V2.5C0 1.83696 0.26339 1.20107 0.732231 0.732233C1.20107 0.263392 1.83696 0 2.5 0L31.5 0C32.163 0 32.7989 0.263392 33.2678 0.732233C33.7366 1.20107 34 1.83696 34 2.5ZM10 13H5V29H10V13ZM10.45 7.5C10.4699 6.9028 10.311 6.31326 9.99374 5.80693C9.67643 5.30061 9.21516 4.90057 8.66904 4.6581C8.12291 4.41563 7.51682 4.34177 6.92844 4.44598C6.34007 4.55019 5.79622 4.82774 5.3666 5.24304C4.93698 5.65833 4.64117 6.19247 4.51707 6.77697C4.39298 7.36148 4.44626 7.96972 4.67009 8.52375C4.89392 9.07778 5.27809 9.55235 5.77337 9.88663C6.26865 10.2209 6.85246 10.3997 7.45 10.4C7.83987 10.4163 8.22899 10.3531 8.59372 10.2145C8.95845 10.0758 9.2912 9.8644 9.57175 9.59319C9.85231 9.32199 10.0748 8.99659 10.2258 8.63677C10.3768 8.27695 10.453 7.8902 10.45 7.5ZM29 19.28C29 14.47 25.94 12.6 22.9 12.6C21.9048 12.5512 20.9141 12.7636 20.0265 13.2162C19.1388 13.6688 18.385 14.3459 17.84 15.18H17.7V13H13V29H18V20.49C17.9631 20.0393 18.0186 19.5859 18.1632 19.1574C18.3078 18.729 18.5384 18.3346 18.8409 17.9985C19.1433 17.6623 19.5112 17.3915 19.922 17.2026C20.3329 17.0137 20.778 16.9107 21.23 16.9C22.82 16.9 24 17.9 24 20.42V29H29V19.28Z" fill="var(--fill-0, #0A66C2)"/>
</svg>
