<svg preserveAspectRatio="none" width="100%" height="100%" overflow="visible" style="display: block;" viewBox="0 0 14 14" fill="none" xmlns="http://www.w3.org/2000/svg">
<path id="Icon" d="M10 0C8.9 0 7.9 0.4 7.2 1.2L1.2 7.2C0.4 7.9 0 8.9 0 10C0 12.2 1.8 14 4 14C5.1 14 6.1 13.6 6.8 12.8L7 12.7L5.6 11.3L5.4 11.5C5 11.8 4.5 12 4 12C2.9 12 2 11.1 2 10C2 9.5 2.2 9 2.6 8.6L8.6 2.6C9 2.2 9.5 2 10 2C11.1 2 12 2.9 12 4C12 4.5 11.8 5 11.4 5.4L8 8.9C7.8 9 7.7 9 7.6 9C7.3 9 7.1 8.8 7.1 8.5C7.1 8.4 7.1 8.3 7.2 8.1L10 5.4L8.6 4L5.9 6.7C5.4 7.2 5.1 7.9 5.1 8.5C5.1 9.9 6.2 11 7.6 11C8.2 11 8.9 10.8 9.4 10.3L12.9 6.8C13.6 6.1 14 5.1 14 4C14 1.8 12.3 0 10 0Z" fill="var(--fill-0, black)" fill-opacity="0.75"/>
</svg>
