<svg preserveAspectRatio="none" width="100%" height="100%" overflow="visible" style="display: block;" viewBox="0 0 128 128" fill="none" xmlns="http://www.w3.org/2000/svg">
<g id="small" clip-path="url(#clip0_0_188)">
<path id="Vector" d="M126.7 0C74.2 1.4 32 43.8 32 96H126.7H128V0C127.6 0 127.1 0 126.7 0Z" fill="var(--fill-0, #DBE7E9)"/>
<path id="Vector_2" d="M119 37H94V4H119V37Z" fill="var(--fill-0, white)"/>
<path id="Vector_3" d="M115 32V19H112.6C111 19 109.6 19.9 109 21.2L106.5 26.4C105.3 29 107.2 31.9 110.1 31.9L115 32Z" fill="var(--fill-0, #AEB48A)"/>
<path id="Vector_4" d="M111 17.1L105.6 28.3C104.5 30.5 102.2 32 99.6 32H98V22.3C98 20.4 99.6 18.9 101.5 18.9H106.1V16C106.1 14.6 107.2 13.5 108.7 13.5C110.5 13.6 111.8 15.5 111 17.1V17.1Z" fill="var(--fill-0, #E4E8CC)"/>
<path id="Vector_5" d="M106 19H98V8H106V19Z" fill="var(--fill-0, #F5987E)"/>
<path id="Vector_6" d="M109.4 13H112.6C113.9 13 115 11.9 115 10.6V10.4C115 9.1 113.9 8 112.6 8H109.4C108.1 8 107 9.1 107 10.4V10.6C107 11.9 108.1 13 109.4 13Z" fill="var(--fill-0, #AEB48A)"/>
<path id="Vector_7" d="M98 16.5C99.5 16.5 100.8 15.3 100.8 13.7C100.8 12.1 99.5 11 98 11V16.5Z" fill="var(--fill-0, #E4E8CC)"/>
<path id="Vector_8" d="M98 53H109V69H98V53Z" fill="var(--fill-0, #FAD296)"/>
<path id="Vector_9" d="M116.5 61.2C117.5 45.9 123 39.6 125 40.8C125.6 41.2 125.6 42 125.4 42.7C124.7 45 121.5 45.5 120.8 47.8C120.7 48.5 121 49.3 120.8 50.1C120.5 51 119.4 51.5 119.2 52.4C119 53.2 119.5 54.1 119.3 55C119 55.9 117.3 57 117.1 58.1L116.5 61.2Z" fill="var(--fill-0, #7B9370)"/>
<path id="Vector_10" d="M117.1 59.8C117.9 54.9 123 52.5 123.6 53.1C123.9 53.3 123.8 53.8 123.6 54.1C123.1 54.6 122.1 54.5 121.6 55.2C121.3 55.6 121.4 56.2 121.1 56.6C120.9 56.8 120.6 56.9 120.4 57.2C120 57.9 119.9 58.4 119 58.6C118.3 58.6 117.2 58.9 117.1 59.8V59.8Z" fill="var(--fill-0, #7B9370)"/>
<path id="Vector_11" d="M115.8 60.1C114.7 50.2 110.7 47.2 110.7 47.2C109.9 46.4 108.6 47.3 109 48.4C109.5 49.6 110.9 50.2 111.5 51.3C111.8 51.9 111.9 52.6 111.8 53.3C111.7 53.7 111.9 54 112.2 54.2C112.5 54.5 112.8 54.7 113.1 55C113.4 55.5 113.3 56.3 113.6 56.8C113.9 57.3 114.4 57.5 114.8 57.9C115.4 58.5 115.8 59.3 115.8 60.1V60.1Z" fill="var(--fill-0, #7B9370)"/>
<path id="Vector_12" d="M115.5 59.7C114.2 57.4 111.5 56.6 111.5 56.6C111.3 56.6 111.1 56.5 110.9 56.5C110.4 56.6 110.2 57.2 110.7 57.5C111.1 57.9 111.9 57.4 112.1 57.9C111.9 59.1 113.3 58.5 114.1 58.7C114.6 58.8 115.1 59.2 115.5 59.7V59.7Z" fill="var(--fill-0, #7B9370)"/>
<path id="Vector_13" d="M115.7 62.7C116.3 58.7 116.6 55.1 117 51.5C117.2 49.5 117.5 47.9 117.2 46.7C116.7 44.3 116.5 44.1 116.8 42.2C117.3 38.5 116.6 37.5 116.1 36.4C115.7 35.7 114.6 35.1 113.9 35.7C112.3 37.6 115.8 40.4 114.5 42.4C114.2 42.6 113.9 42.8 113.9 43.2C113.2 45.8 117.4 48.2 115.2 50.6C114.5 51.9 116.3 53.4 115.3 54.6C115 55.3 115.4 56 115.8 56.7C116.5 58.4 115.9 60.8 115.7 62.7V62.7Z" fill="var(--fill-0, #7B9370)"/>
<path id="Vector_14" d="M118.6 69H113C111.2 67.8 109.4 63.6 113 59H118.7C122.2 63.6 120.5 67.8 118.6 69V69Z" fill="var(--fill-0, #F5987E)"/>
<path id="Vector_15" d="M95.6 56.3H96.1V66H95.6V56.3Z" fill="var(--fill-0, #2A67B2)"/>
<path id="Vector_16" d="M94.7357 56.8302L95.2343 56.793L95.9556 66.4659L95.457 66.503L94.7357 56.8302Z" fill="var(--fill-0, #0D2135)"/>
<path id="Vector_17" d="M99.604 56.9919L100.102 57.0335L99.2952 66.6996L98.797 66.658L99.604 56.9919Z" fill="var(--fill-0, #D69D48)"/>
<path id="Vector_18" d="M96.0462 57.3813L96.5416 57.3137L97.8541 66.9244L97.3587 66.9921L96.0462 57.3813Z" fill="var(--fill-0, #B75A42)"/>
<path id="Vector_19" d="M98.703 56.9973L99.2029 57.0077L99.0015 66.7058L98.5016 66.6954L98.703 56.9973Z" fill="var(--fill-0, white)"/>
<path id="Vector_20" d="M97.9274 56.6062L98.4274 56.5985L98.5768 66.2975L98.0768 66.3052L97.9274 56.6062Z" fill="var(--fill-0, #0D2135)"/>
<path id="Vector_21" d="M95 61H100V69H95V61Z" fill="var(--fill-0, #A0B4B7)"/>
<path id="Vector_22" d="M41 69V114H43.8V72H107.8V69H41Z" fill="var(--fill-0, #B9AF9F)"/>
<path id="Vector_23" d="M63.2 69V72H125V115H128V69H63.2Z" fill="var(--fill-0, #B9AF9F)"/>
<path id="Vector_24" d="M122 118C120.8 116.2 118.8 115.1 116.5 115.1H92.5C88.9 115.1 86 118 86 121.6C86 125.2 88.9 128.1 92.5 128.1H103.4H116.6H122.1C124.9 128.1 127.1 125.9 127.1 123.1C127.1 120.3 124.8 118 122 118V118Z" fill="var(--fill-0, #7C8F81)"/>
<path id="Vector_25" d="M75.3 116.9L70.2 118.7L68.6 116.7L64.6 111.9L71 110.9C71.9 112 72 112.2 73.3 113.3L75.3 116.9Z" fill="var(--fill-0, #C0D1E2)"/>
<path id="Vector_26" d="M85.5 116.4C85.2 116 84.8 115.9 84.3 115.9C79.3 116.5 74.9 114.1 74.9 114.1L73.3 113.5C72.7 114.8 73.4 115.6 73.9 115.9C71.5 118.9 68.8 116.8 68.8 116.8V121.3C68.8 122.4 69.9 123.3 71 123L82.7 119.8C84.1 119.4 85 118.7 85.5 118.2C85.9 117.6 85.9 116.9 85.5 116.4V116.4Z" fill="var(--fill-0, #56687A)"/>
<path id="Vector_27" d="M50.2 121.5L44.8 121.9L43.8 119.6L41.5 114.7H47.6C48.2 116 48.2 116.2 49.1 117.6L50.2 121.5Z" fill="var(--fill-0, #C0D1E2)"/>
<path id="Vector_28" d="M60.2 123.6C60 123.2 59.6 122.9 59.2 122.8C54.2 122.1 50.6 118.6 50.6 118.6L49.2 117.5C48.3 118.6 48.7 119.5 49.1 120C46 122.2 43.8 119.5 43.8 119.5L42.7 123.8C42.4 124.9 43.3 125.9 44.4 125.9H56.5C57.9 125.9 59 125.5 59.6 125.1C60.2 124.9 60.4 124.2 60.2 123.6V123.6Z" fill="var(--fill-0, #56687A)"/>
<path id="Vector_29" d="M6 75.4V97V100L3.4 126H1.4L3 97V78.7L2.2 68.8L3.4 63C3.4 63 6 69.1 6 75.4Z" fill="var(--fill-0, #E0A675)"/>
<path id="Vector_30" d="M28.2 97H5.5V100H25.4L26.9 116H3.5L3.3 118H27.1L27.7 126H29.6C29.3 120.1 28.5 103.1 28.2 97V97Z" fill="var(--fill-0, #E0A675)"/>
<path id="Vector_31" d="M6 97H27.4L25.4 93.7L6 94V97Z" fill="var(--fill-0, #945544)"/>
<path id="Vector_32" fill-rule="evenodd" clip-rule="evenodd" d="M26.4 85.3H38.5C38.5 85.3 40 84.1 41.8 83.1C41.8 83.1 37.4 80.2 34.8 77.8C31.4 74.8 28.6 68.7 28.6 68.7L26.3 59.7C25.7 57.3 23.5 55 21 55H18.7L25.4 84.8L26.4 85.3Z" fill="var(--fill-0, #B75A42)"/>
<path id="Vector_33" fill-rule="evenodd" clip-rule="evenodd" d="M24.7 61.6C24.1 59.2 23.1 57.6 22 56.5C20.9 55.4 19.8 55 18.2 55C13.2 55 11.3 55 8 55C6.9 55 3 61 3 61V76.2C3 79.1 4.1 81.9 6 84L29.6 82.2L24.7 61.6Z" fill="var(--fill-0, #A3503B)"/>
<path id="Vector_34" d="M11.4 45V44.9V44.8C11.3 43.5 11.5 42.1 12.2 40.8C14 37.3 18.4 36 21.8 37.8C24.4 39.2 25.8 41.9 25.6 44.6C25.6 45.3 25.4 46 25.1 46.7C25.1 46.9 25 47 25 47.1C24.6 48.1 24.7 48.9 24.7 49.6C24.7 50.1 24.3 50.6 23.9 50.5H23.2C23.1 50.8 22.2 52 22.1 52.2C21.4 53.2 19.7 53 18 53.2C17 53.4 17 55 17 55H7C8.1 54.5 11.8 49.7 11.7 47.6C11.6 46.8 11.5 46 11.4 45V45Z" fill="var(--fill-0, #E7AD82)"/>
<path id="Vector_35" d="M23.9 46.4L22.3 48.3L22.8 48.6L24.4 46.7" fill="var(--fill-0, #69295A)"/>
<path id="Vector_36" d="M23.7 47.5L20.7 44.7L20.4 45L23.5 47.8" fill="var(--fill-0, #69295A)"/>
<path id="Vector_37" d="M25.5 36.7C25.3 35.5 24.2 34.5 23 34.5C22.5 34.5 22.1 34.6 21.6 34.5C20.5 34.4 19.6 33.3 18.5 33.5C17.9 33.6 17.4 34 16.8 34.1C16.2 34.2 15.5 34 14.9 34.2C13 34.6 12.8 36.8 12.2 38.4C11.9 39.1 11.2 39.6 11 40.4C10.9 41 11.1 41.6 11 42.2C10.9 42.7 10.5 43.1 10.3 43.5C9 45.9 11.6 48.7 14.2 48C15.1 47.7 16 46.1 16.1 45C16.2 44.2 16.7 43.5 17.5 43.3C18.9 42.8 20.4 44.2 20 45.6C23.9 45.8 26.9 44 27.7 42.3C28.6 40.2 28 37 25.5 36.7V36.7Z" fill="var(--fill-0, #42292D)"/>
<path id="Vector_38" fill-rule="evenodd" clip-rule="evenodd" d="M8 72V55C4.5 55 2.5 56.5 1.4 58C0.4 59.3 0 60.8 0 62.4V73.6C0 77 2.5 79.8 5.6 79.8H22V73.7L8 72Z" fill="var(--fill-0, #B75A42)"/>
<path id="Vector_39" fill-rule="evenodd" clip-rule="evenodd" d="M38.5 67C36.8 67 31.7 67 30.5 67C30.3 67 30.1 67.1 30 67.3C29.3 68.8 26.3 75.1 25.2 77.3C25 77.6 25.3 78 25.7 78H33.7C33.9 78 34.1 77.9 34.2 77.7C34.9 76.2 37.9 69.9 39 67.7C39.1 67.4 38.8 67 38.5 67Z" fill="var(--fill-0, #2F2F2F)"/>
<path id="Vector_40" d="M27.5 73.1C28.3 72.7 28.9 72.1 29.3 71.6C30.3 70.7 30.6 73.3 30.7 74C30.7 75.2 29.8 76.6 29.1 77.6C28.6 78.3 27.8 78.9 27 78.9H22V73.7H24.3L27.4 71.6C28.3 71.4 27.8 72.7 27.5 73.1Z" fill="var(--fill-0, #E7AD82)"/>
<path id="Vector_41" d="M48.1 85.5C48.1 85.5 47.3 85.5 46.7 85.5H38.6C38.6 85.5 37.9 81.9 42.7 82C44.2 82.1 45.1 83.3 45.9 83.8C46.9 84.5 47.7 84.6 48.1 85.5V85.5Z" fill="var(--fill-0, #E7AD82)"/>
<g id="Group">
<path id="Vector_42" fill-rule="evenodd" clip-rule="evenodd" d="M19.3 85C19.6 88.6 20.4 91.6 22.1 93.4C26.6 98.2 31.3 97.2 31.3 97.2C31.3 97.2 42.3 97.4 46.2 97.5C47.1 97.5 47.9 97.9 48.5 98.5C51.6 101.8 61.5 112.8 61.5 112.8H72.5C72.5 112.8 61 95 56.4 88.1C55.3 86.4 53.3 85 51.2 85C42.5 85 25 85 25 85H19.3Z" fill="var(--fill-0, #C7882C)"/>
<path id="Vector_43" fill-rule="evenodd" clip-rule="evenodd" d="M11.2 92.6C14.5 96.3 20.9 97.4 20.9 97.4H27.5L37 116H49C49 116 39.7 93.8 36.4 85.1C35.6 82.9 33.4 81.6 31 81.8L5.9 84C5.9 84 7.4 88.4 11.2 92.6Z" fill="var(--fill-0, #D69D48)"/>
<path id="Vector_44" fill-rule="evenodd" clip-rule="evenodd" d="M89 33.5C89 33.1 88.8 32.7 88.6 32.4C88.3 32.1 87.9 32 87.5 32C80.6 32 52.4 32 45.5 32C45.1 32 44.7 32.2 44.4 32.4C44.1 32.7 44 33.1 44 33.5V60.5C44 60.9 44.2 61.3 44.4 61.6C44.7 61.9 45.1 62 45.5 62H87.5C87.9 62 88.3 61.8 88.6 61.6C88.9 61.3 89 60.9 89 60.5C89 55.4 89 38.6 89 33.5Z" fill="var(--fill-0, #56687A)"/>
<path id="Vector_45" fill-rule="evenodd" clip-rule="evenodd" d="M58 67C58.9 67 59.7 66.7 60.3 66C60.9 65.3 61 63.4 61 63.4V62H71V63.4C71 63.4 71.1 65.3 71.7 66C72.3 66.7 73.2 67 74 67V68H58V67Z" fill="var(--fill-0, #38434F)"/>
<path id="Vector_46" fill-rule="evenodd" clip-rule="evenodd" d="M74 68H58V69H74V68Z" fill="var(--fill-0, #56687A)"/>
<path id="Vector_47" fill-rule="evenodd" clip-rule="evenodd" d="M82 36H46V58H82V36Z" fill="var(--fill-0, white)"/>
</g>
<path id="Vector_48" d="M46 34H82V36H46V34Z" fill="var(--fill-0, #0A66C2)"/>
<path id="Vector_49" d="M82 34H87V58H82V34Z" fill="var(--fill-0, #F3F2EF)"/>
<path id="Vector_50" d="M46 42H54V53H46V42Z" fill="var(--fill-0, #E0EEFA)"/>
<path id="Vector_51" d="M48 42H54V43H48V42Z" fill="var(--fill-0, #9AC6EA)"/>
<path id="Vector_52" d="M48 44H54V45H48V44Z" fill="var(--fill-0, #9AC6EA)"/>
<path id="Vector_53" d="M48 46H54V47H48V46Z" fill="var(--fill-0, #9AC6EA)"/>
<path id="Vector_54" d="M48 48H54V49H48V48Z" fill="var(--fill-0, #9AC6EA)"/>
<path id="Vector_55" d="M46 38H54V40H46V38Z" fill="var(--fill-0, #E0EEFA)"/>
<path id="Vector_56" d="M59 38H79V40H59V38Z" fill="var(--fill-0, #FCE2BA)"/>
<path id="Vector_57" d="M78 43V55H60V43H78ZM79 42H59V56H79V42Z" fill="var(--fill-0, #D0E8FF)"/>
<path id="Vector_58" d="M125.1 112.4C124.9 112.2 124.5 112.5 124.7 112.7C126.2 114.9 123.4 118.4 119.7 115.2C118.5 113.2 115.7 112 112.9 112C111.3 112 107.9 112 105.8 112C104 112 102.2 111.3 101 110C100.3 109.2 99.7 108.1 100 106.8C100 106.7 100 106.7 100 106.6C100 104.7 98.8 103.9 98.8 103.9V105C98.5 104 97.6 103.8 97.6 103.8L97.8 104.5C97.5 103.9 96.9 103.9 96.9 103.9L97 104.3C95.8 104.1 94.7 104.4 94.1 105.6C93.5 106.4 91.3 105.5 90.5 105.5C89.1 105.4 90.5 107.8 90.6 108.3C90.8 109.3 93.2 109.7 93.9 110.1C95.4 110.7 95.7 112.6 95.8 114.6C95.9 116.6 96.3 116 93 117.5C92.3 117.8 90.8 118.3 89.9 119.1C89.1 119.9 88.3 121.5 89 122.1C89.6 122.6 90.3 121.7 90.8 121C91.3 120.2 92.1 119.6 93 119.4C93.3 119.3 93.5 119.3 93.7 119.3C98 120.1 100.1 119.7 101 118.8C105 115.1 104.8 120 113.9 117.7C117.2 116.9 119.5 117.4 120.7 117.8C120.7 117.8 120.7 117.8 120.7 117.7C125.9 118.6 127.1 114.3 125.1 112.4V112.4Z" fill="var(--fill-0, #945544)"/>
<path id="Vector_59" d="M97.4 105.9H96.3C95.3 105.9 94.6 107.1 95.1 108C96.2 110 98.5 110.4 98.5 110.4C98.8 108.7 98.7 108 98.3 106.6C98.2 106.3 97.8 105.9 97.4 105.9Z" fill="var(--fill-0, #6E3F33)"/>
</g>
<defs>
<clipPath id="clip0_0_188">
<rect width="128" height="128" fill="white"/>
</clipPath>
</defs>
</svg>
