<svg preserveAspectRatio="none" width="100%" height="100%" overflow="visible" style="display: block;" viewBox="0 0 20.4963 20.2626" fill="none" xmlns="http://www.w3.org/2000/svg">
<path id="Icon" d="M8.27664 18.2626H12.2766V18.3626C12.2766 19.3626 11.3766 20.2626 10.3766 20.2626H10.1766C9.17664 20.2626 8.27664 19.3626 8.27664 18.3626V18.2626ZM12.9766 3.76265C13.4766 3.96265 14.0766 3.76265 14.2766 3.26265L15.0766 1.46265C15.2766 0.962646 15.0766 0.362646 14.5766 0.162646C14.0766 -0.0373538 13.4766 0.162646 13.2766 0.662646L12.4766 2.46265C12.1766 2.96265 12.4766 3.56265 12.9766 3.76265ZM18.0766 8.16265L19.8766 7.36265C20.3766 7.16265 20.6766 6.56265 20.3766 6.06265C20.2766 5.56265 19.6766 5.26265 19.1766 5.46265L17.2766 6.26265C16.7766 6.46265 16.4766 7.06265 16.7766 7.56265C16.9766 8.06265 17.5766 8.36265 18.0766 8.16265ZM2.47664 12.3626L0.676641 13.1626C0.176641 13.3626 -0.123359 13.9626 0.176641 14.4626C0.476641 14.9626 0.976641 15.2626 1.47664 14.9626L3.27664 14.2626C3.77664 14.0626 4.07664 13.4626 3.77664 12.9626C3.47664 12.4626 2.97664 12.1626 2.47664 12.3626ZM19.8766 13.1626L18.0766 12.3626C17.5766 12.1626 16.9766 12.3626 16.7766 12.8626C16.5766 13.3626 16.7766 13.9626 17.2766 14.1626L19.0766 14.9626C19.5766 15.1626 20.1766 14.9626 20.3766 14.4626C20.6766 13.9626 20.3766 13.3626 19.8766 13.1626ZM3.27664 6.26265L1.37664 5.46265C0.876641 5.26265 0.276641 5.56265 0.0766407 6.06265C-0.123359 6.56265 0.0766407 7.16265 0.576641 7.36265L2.37664 8.16265C2.87664 8.36265 3.47664 8.16265 3.67664 7.66265C3.97664 7.06265 3.77664 6.46265 3.27664 6.26265ZM6.27664 3.26265C6.47664 3.76265 7.07664 4.06265 7.57664 3.76265C8.07664 3.56265 8.37664 2.96265 8.07664 2.46265L7.37664 0.662646C7.17664 0.162646 6.57664 -0.137354 6.07664 0.0626462C5.57664 0.262646 5.27664 0.862646 5.47664 1.36265L6.27664 3.26265ZM15.2766 10.1626V10.2626C15.2766 11.7626 14.6766 13.1626 13.6766 14.1626L13.5766 14.2626C13.0766 14.7626 12.6766 15.4626 12.4766 16.1626L12.2766 17.2626H8.27664L8.07664 16.1626C7.87664 15.4626 7.57664 14.7626 6.97664 14.2626L6.87664 14.1626C5.87664 13.1626 5.27664 11.7626 5.27664 10.2626V10.1626C5.27664 7.46265 7.47664 5.26265 10.1766 5.26265H10.3766C13.0766 5.26265 15.2766 7.46265 15.2766 10.1626ZM13.2766 10.1626C13.2766 8.56265 11.9766 7.26265 10.3766 7.26265H10.1766C8.57664 7.26265 7.27664 8.56265 7.27664 10.1626V10.2626C7.27664 11.1626 7.67664 12.0626 8.27664 12.7626L8.37664 12.8626C9.07664 13.5626 9.57664 14.3626 9.87664 15.2626H10.6766C10.9766 14.3626 11.4766 13.4626 12.1766 12.8626L12.2766 12.7626C12.9766 12.0626 13.2766 11.2626 13.2766 10.2626V10.1626Z" fill="var(--fill-0, black)" fill-opacity="0.75"/>
</svg>
