<svg preserveAspectRatio="none" width="100%" height="100%" overflow="visible" style="display: block;" viewBox="0 0 19.99 19.96" fill="none" xmlns="http://www.w3.org/2000/svg">
<path id="Icon" d="M11.32 13.82C10.27 13.82 9.21 13.42 8.41 12.63L7.87 12.09C7.48 11.7 7.48 11.07 7.87 10.68C8.26 10.29 8.89 10.29 9.28 10.68L9.81 11.22C10.64 12.04 11.98 12.04 12.81 11.22L17.13 6.94C17.68 6.39 17.99 5.66 17.99 4.88C17.99 4.1 17.69 3.37 17.13 2.82C16.02 1.72 14.21 1.72 13.1 2.82L11.48 4.43C11.09 4.82 10.46 4.82 10.07 4.43C9.68 4.04 9.68 3.41 10.07 3.02L11.69 1.41C13.57 -0.47 16.65 -0.47 18.54 1.41C19.47 2.34 19.99 3.57 19.99 4.89C19.99 6.21 19.48 7.45 18.54 8.37L14.22 12.65C13.42 13.45 12.37 13.84 11.31 13.84L11.32 13.82ZM8.3 18.57L9.92 16.96C10.31 16.57 10.31 15.94 9.92 15.55C9.53 15.16 8.9 15.16 8.51 15.55L6.89 17.16C5.78 18.27 3.97 18.27 2.86 17.16C2.31 16.61 2 15.88 2 15.1C2 14.32 2.3 13.59 2.86 13.04L7.18 8.76C8.01 7.94 9.35 7.94 10.18 8.76L10.71 9.29C11.1 9.68 11.73 9.68 12.12 9.29C12.51 8.9 12.51 8.27 12.12 7.88L11.58 7.34C9.98 5.75 7.37 5.75 5.76 7.34L1.45 11.6C0.52 12.53 0 13.76 0 15.08C0 16.4 0.51 17.64 1.45 18.56C2.39 19.5 3.63 19.96 4.87 19.96C6.11 19.96 7.35 19.49 8.3 18.55V18.57Z" fill="var(--fill-0, white)"/>
</svg>
