<svg preserveAspectRatio="none" width="100%" height="100%" overflow="visible" style="display: block;" viewBox="0 0 26.6667 26.6667" fill="none" xmlns="http://www.w3.org/2000/svg">
<path id="Icon" d="M24.6667 0H2C0.933333 0 0 0.933333 0 2V24.6667C0 25.7333 0.933333 26.6667 2 26.6667H24.6667C25.7333 26.6667 26.6667 25.7333 26.6667 24.6667V2C26.6667 0.933333 25.7333 0 24.6667 0ZM8 22.6667H4V10.6667H8V22.6667ZM6 8.26667C4.66667 8.26667 3.6 7.2 3.6 5.86667C3.6 4.53333 4.66667 3.46667 6 3.46667C7.33333 3.46667 8.4 4.53333 8.4 5.86667C8.4 7.33333 7.33333 8.26667 6 8.26667ZM22.6667 22.6667H18.6667V16.4C18.6667 14.5333 17.8667 13.8667 16.8 13.8667C15.7333 13.8667 14.6667 14.8 14.6667 16.5333V22.6667H10.6667V10.6667H14.5333V12.4C15.0667 11.6 16.2667 10.5333 18.1333 10.5333C20.1333 10.5333 22.6667 11.7333 22.6667 15.4667V22.6667Z" fill="var(--fill-0, white)"/>
</svg>
