<svg preserveAspectRatio="none" width="100%" height="100%" overflow="visible" style="display: block;" viewBox="0 0 44 44" fill="none" xmlns="http://www.w3.org/2000/svg">
<g id="Component 1">
<rect width="44" height="44" rx="22" fill="var(--fill-0, black)" fill-opacity="0.3"/>
<path id="L" d="M19.7431 29C19.2149 29 18.7923 28.8303 18.4754 28.491C18.1585 28.1516 18 27.6992 18 27.1336L18 16.1198C18 15.7352 18.1162 15.4525 18.3486 15.2715C18.6022 15.0905 18.8663 15 19.1409 15C19.4156 15 19.6586 15.0905 19.8699 15.2715C20.1023 15.4525 20.2185 15.7352 20.2185 16.1198V26.0138C20.2185 26.3531 20.2819 26.5907 20.4087 26.7264C20.5354 26.8395 20.7467 26.8961 21.0425 26.8961H25.0175C25.3556 26.8961 25.5986 27.0092 25.7465 27.2354C25.9155 27.4616 26 27.6992 26 27.948C26 28.2195 25.9155 28.4684 25.7465 28.6946C25.5986 28.8982 25.3556 29 25.0175 29H19.7431Z" fill="var(--fill-0, white)"/>
</g>
</svg>
