<svg preserveAspectRatio="none" width="100%" height="100%" overflow="visible" style="display: block;" viewBox="0 0 23 17" fill="none" xmlns="http://www.w3.org/2000/svg">
<g id="Group">
<path id="Vector" d="M14.4 1C14.8 1 15 1.3 15 1.6V4H8V1.6C8 1.2 8.3 1 8.6 1H14.4ZM14.4 0H8.7C7.8 0 7.1 0.699998 7.1 1.6V5H16.1V1.6C16 0.699998 15.3 0 14.4 0Z" fill="var(--fill-0, #56341B)"/>
<path id="Vector_2" fill-rule="evenodd" clip-rule="evenodd" d="M0 13H23V16C23 16.6 22.5 17 22 17H1C0.4 17 0 16.5 0 16V13Z" fill="var(--fill-0, #A38163)"/>
<path id="Vector_3" d="M23 11H0V14H23V11Z" fill="var(--fill-0, #795A40)"/>
<path id="Vector_4" fill-rule="evenodd" clip-rule="evenodd" d="M0 3H23V11.9C23 12.5 22.5 13 21.9 13H1.1C0.5 13 0 12.5 0 11.9V3Z" fill="var(--fill-0, #B7A08B)"/>
<g id="Group_2">
<path id="Vector_5" d="M6 3H4V13H6V3Z" fill="var(--fill-0, #56341B)"/>
</g>
<g id="Group_3">
<path id="Vector_6" d="M6 13H4V17H6V13Z" fill="var(--fill-0, #3A210F)"/>
</g>
<g id="Group_4">
<path id="Vector_7" d="M19 13H17V17H19V13Z" fill="var(--fill-0, #3A210F)"/>
</g>
<path id="Vector_8" d="M6 9V12H4V9H6ZM6 8.5H4C3.7 8.5 3.5 8.7 3.5 9V12C3.5 12.3 3.7 12.5 4 12.5H6C6.3 12.5 6.5 12.3 6.5 12V9C6.5 8.7 6.3 8.5 6 8.5Z" fill="var(--fill-0, #98B8BF)"/>
<g id="Group_5">
<path id="Vector_9" d="M19 3H17V13H19V3Z" fill="var(--fill-0, #56341B)"/>
</g>
<path id="Vector_10" d="M19 9V12H17V9H19ZM19 8.5H17C16.7 8.5 16.5 8.7 16.5 9V12C16.5 12.3 16.7 12.5 17 12.5H19C19.3 12.5 19.5 12.3 19.5 12V9C19.5 8.7 19.3 8.5 19 8.5Z" fill="var(--fill-0, #98B8BF)"/>
</g>
</svg>
