<svg preserveAspectRatio="none" width="100%" height="100%" overflow="visible" style="display: block;" viewBox="0 0 8.46037 19.7889" fill="none" xmlns="http://www.w3.org/2000/svg">
<path id="Vector" d="M5.36038 10.1889C5.16038 9.78889 5.06038 9.38889 5.16038 8.98889C5.36038 7.68889 5.76038 4.28889 4.26038 0.788889C4.16038 0.488889 3.86038 0.388888 3.56038 0.488888L3.36038 0.188889C3.16038 -0.211111 2.46038 0.0888883 2.66038 0.488888C2.96038 1.28889 3.56037 3.48889 2.46037 5.48889C2.26037 5.78889 1.76038 5.78889 1.56038 5.48889L0.960374 4.18889C0.660374 3.58889 -0.23962 3.98889 0.0603799 4.58889C0.26038 5.08889 0.560378 5.78889 0.660378 6.18889C0.960378 6.88889 0.46038 7.78889 2.06038 9.98889L3.26038 16.6889L8.46037 19.7889C8.36037 19.4889 5.46038 10.1889 5.36038 10.1889Z" fill="var(--fill-0, #955646)"/>
</svg>
