<svg preserveAspectRatio="none" width="100%" height="100%" overflow="visible" style="display: block;" viewBox="0 0 52.4573 101.566" fill="none" xmlns="http://www.w3.org/2000/svg">
<g id="Group">
<g id="Group_2">
<path id="Vector" d="M47.1573 91.3657L52.4573 85.7657C50.6573 83.7657 50.4573 84.3657 49.2573 83.1657L48.0573 81.9657L44.8573 85.3657C47.5573 88.5657 44.3573 88.7657 47.1573 91.3657Z" fill="var(--fill-0, #0D2135)"/>
<path id="Vector_2" d="M44.8573 85.3657L42.6573 83.5657L45.6573 79.5657L48.0573 81.9657L44.8573 85.3657Z" fill="var(--fill-0, #95ABC1)"/>
</g>
<path id="Vector_3" d="M43.7573 6.66568C43.7573 6.06568 43.6573 5.66569 43.7573 4.66569C43.9573 3.96569 43.2573 3.56569 42.8573 4.16569L42.7573 5.56569C42.5573 5.86569 42.6573 5.76568 42.5573 5.66568C41.6573 3.46568 42.5573 1.36569 42.9573 0.565685C43.1573 0.165685 42.5573 -0.234315 42.2573 0.165686L42.0573 0.365684C41.8573 0.265684 41.4573 0.265685 41.3573 0.565685C39.4573 3.96569 39.3573 7.36569 39.3573 8.76569C39.2573 10.1657 33.8573 20.9657 33.2573 22.5657L37.0573 24.6657L42.3573 10.2657C44.2573 8.16569 43.7573 7.56568 43.7573 6.66568Z" fill="var(--fill-0, #955646)"/>
<g id="Group_3">
<path id="Vector_4" d="M19.8573 15.0657C19.8573 14.9657 19.8573 14.7657 19.8573 14.5657C19.4573 11.3657 16.7573 8.96569 13.5573 8.96569C8.55731 8.86569 5.4573 14.7657 8.2573 18.8657C10.4573 21.8657 10.3573 24.1657 8.0573 27.0657C10.2573 27.0657 14.7573 27.0657 16.9573 27.1657C16.7573 26.7657 15.8573 22.8657 17.7573 22.3657C19.8573 21.6657 19.9573 21.5657 19.9573 19.4657C19.8573 18.2657 20.7573 18.4657 20.7573 17.7657C20.6573 17.0657 19.9573 16.3657 19.8573 15.0657Z" fill="var(--fill-0, #955646)"/>
<path id="Vector_5" d="M18.1573 9.16568C16.5573 7.46568 16.0573 7.76569 13.5573 8.06569C11.9573 8.26569 11.0573 7.06569 10.1573 7.96569C9.3573 8.76569 9.4573 9.66569 8.5573 10.0657C7.5573 10.4657 6.8573 10.0657 6.1573 11.4657C5.4573 12.8657 6.6573 14.5657 5.7573 15.9657C5.3573 16.8657 6.0573 17.6657 6.3573 18.3657C6.4573 19.0657 5.8573 19.4657 5.7573 20.1657C5.6573 21.0657 6.4573 21.7657 7.1573 21.9657C7.6573 22.2657 8.0573 22.6657 8.5573 22.6657C9.3573 22.6657 9.75731 21.7657 10.3573 21.3657C11.5573 20.9657 12.7573 19.5657 12.3573 18.1657C11.8573 16.8657 11.6573 16.4657 11.7573 15.9657C11.8573 15.1657 12.5573 14.5657 13.3573 14.5657C13.6573 14.5657 13.8573 14.6657 14.0573 14.7657C14.6573 15.1657 15.1573 15.1657 15.4573 14.7657C15.7573 14.4657 16.1573 14.7657 16.6573 14.1657C17.0573 13.7657 16.4573 13.2657 17.0573 12.7657C17.9573 11.9657 19.6573 13.2657 20.0573 12.1657C20.8573 10.2657 19.6573 10.6657 18.1573 9.16568Z" fill="var(--fill-0, #0D2135)"/>
</g>
<path id="Vector_6" d="M16.7573 26.8657C16.6573 26.4657 16.1573 24.7657 16.5573 23.4657H9.6573C9.4573 24.3657 8.9573 25.3657 8.1573 26.5657L8.6573 54.5657H18.6573L18.8573 26.8657H16.7573Z" fill="var(--fill-0, #0D2135)"/>
<path id="Vector_7" d="M9.1573 24.9657C16.9573 42.4657 14.6573 54.5657 14.6573 54.5657H1.6573C-0.042696 34.7657 -1.0427 31.6657 2.0573 29.3657C3.7573 28.0657 5.2573 26.9657 5.2573 26.9657L9.1573 24.9657Z" fill="var(--fill-0, #E7592F)"/>
<g id="Group_4">
<path id="Vector_8" d="M18.9573 101.566H10.7573C10.5573 98.8657 11.1573 97.7657 11.4573 95.7657H16.1573C16.6573 99.9657 18.9573 97.7657 18.9573 101.566Z" fill="var(--fill-0, #0D2135)"/>
<path id="Vector_9" d="M17.6573 92.5657C16.9573 93.3657 16.1573 95.7657 16.1573 95.7657H11.4573C11.8573 93.7657 12.6573 92.5657 12.6573 92.5657H17.6573Z" fill="var(--fill-0, #95ABC1)"/>
</g>
<path id="Vector_10" d="M16.4573 25.5657L17.3573 54.9657H22.9573L25.8573 36.2657L32.6573 32.4657C35.8573 30.7657 37.7573 29.4657 38.4573 25.8657L41.8573 12.0657L38.2573 11.4657C33.8573 19.2657 31.2573 22.6657 31.2573 22.6657L16.4573 25.5657Z" fill="var(--fill-0, #E7592F)"/>
<path id="Vector_11" d="M19.6573 67.5657L11.2573 92.6657C10.9573 93.5657 11.6573 94.5657 12.6573 94.5657H19.3573C20.7573 94.5657 21.9573 93.6657 22.4573 92.3657L31.6573 67.5657H19.6573Z" fill="var(--fill-0, #394450)"/>
<path id="Vector_12" d="M29.7573 60.2657C27.5573 57.7657 24.9573 56.7657 22.0573 56.6657L17.6573 54.5657H1.6573L0.457304 61.4657C0.457304 64.6657 2.6573 68.5657 7.0573 68.5657H21.6573L37.6573 85.5657C38.6573 86.6657 40.5573 86.6657 41.6573 85.5657L46.6573 80.5657L29.7573 60.2657Z" fill="var(--fill-0, #57697B)"/>
<path id="Vector_13" d="M20.5573 60.5657H30.6573L32.7573 48.5657H22.6573L20.5573 60.5657Z" fill="var(--fill-0, #DCE6F1)"/>
<path id="Vector_14" d="M23.7573 52.9657L22.5573 53.4657L21.8573 53.1657L22.0573 52.0657H20.9573C20.3573 52.2657 19.1573 52.2657 18.5573 52.1657L16.6573 54.9657C17.6573 55.7657 18.7573 57.5657 20.0573 57.2657C20.7573 57.1657 21.6573 57.1657 21.9573 56.3657C22.3573 56.1657 23.2573 56.0657 23.3573 55.4657L23.4573 55.0657C23.9573 54.8657 24.0573 54.4657 24.0573 53.9657L24.2573 53.7657C24.5573 53.3657 24.1573 52.7657 23.7573 52.9657Z" fill="var(--fill-0, #BF7461)"/>
<path id="Vector_15" d="M5.6573 26.7657L8.1573 44.3657L18.6573 52.0657L15.4573 56.7657L6.3573 51.5657C4.1573 50.1657 2.6573 48.0657 1.8573 45.5657L0.257304 35.4657C-0.942696 30.7657 2.2573 27.8657 5.6573 26.7657Z" fill="var(--fill-0, #EF775B)"/>
</g>
</svg>
