<svg preserveAspectRatio="none" width="100%" height="100%" overflow="visible" style="display: block;" viewBox="0 0 36.0845 65.564" fill="none" xmlns="http://www.w3.org/2000/svg">
<g id="Group">
<path id="Vector" fill-rule="evenodd" clip-rule="evenodd" d="M34.8797 22.164C40.4797 4.86396 25.5797 -3.03604 10.3797 1.06396C0.779722 4.06396 -1.82028 13.064 1.17972 22.164C2.67972 26.764 6.67972 27.864 7.77972 31.964C8.77972 35.664 6.67972 39.064 6.47972 42.664C6.27972 49.564 9.87972 54.864 16.0797 55.564H19.8797C26.0797 54.864 29.9797 49.564 29.6797 42.764C29.4797 39.164 27.3797 35.764 28.3797 32.064C29.4797 27.864 33.3797 26.864 34.8797 22.164Z" fill="var(--fill-0, #9DB88F)"/>
<g id="Group_2">
<path id="Vector_2" d="M28.7797 17.664C28.7797 17.664 19.3797 24.664 17.5797 26.064C15.7797 24.664 6.37972 17.664 6.37972 17.664C5.87972 17.264 5.27972 18.064 5.77972 18.464L17.1797 27.064C17.2797 27.164 17.3797 27.264 17.5797 27.264C17.7797 27.264 17.8797 27.164 17.9797 27.064C19.0797 26.164 29.3797 18.464 29.3797 18.464C29.8797 18.064 29.2797 17.264 28.7797 17.664Z" fill="var(--fill-0, #7B9370)"/>
<path id="Vector_3" d="M23.5797 12.564C23.5797 12.564 18.1797 16.864 17.5797 17.364C16.2797 16.364 11.5797 12.564 11.5797 12.564C11.0797 12.164 10.4797 12.964 10.9797 13.364L17.1797 18.364C17.2797 18.464 17.3797 18.564 17.5797 18.564C17.7797 18.564 17.8797 18.464 17.9797 18.364C18.7797 17.664 24.1797 13.364 24.1797 13.364C24.6797 12.964 24.0797 12.164 23.5797 12.564Z" fill="var(--fill-0, #7B9370)"/>
<path id="Vector_4" d="M23.5797 41.864C23.5797 41.864 18.1797 46.164 17.5797 46.664C16.2797 45.664 11.5797 41.864 11.5797 41.864C11.0797 41.464 10.4797 42.264 10.9797 42.664L17.1797 47.664C17.2797 47.764 17.3797 47.864 17.5797 47.864C17.7797 47.864 17.8797 47.764 17.9797 47.664C18.7797 46.964 24.1797 42.664 24.1797 42.664C24.6797 42.264 24.0797 41.464 23.5797 41.864Z" fill="var(--fill-0, #7B9370)"/>
</g>
<path id="Vector_5" d="M17.5797 65.564C17.2797 65.564 17.0797 65.364 17.0797 65.064V9.06396C17.0797 8.76396 17.2797 8.56396 17.5797 8.56396C17.8797 8.56396 18.0797 8.76396 18.0797 9.06396V65.064C18.0797 65.364 17.8797 65.564 17.5797 65.564Z" fill="var(--fill-0, #7B9370)"/>
</g>
</svg>
